<svg width="357" height="178" viewBox="0 0 357 178" fill="none" xmlns="http://www.w3.org/2000/svg">
<g clip-path="url(#clip0)">
<path d="M356.6 106.2C328.5 106.7 300.4 107.3 272.4 105.5C267.5 105.2 265.5 104.4 265 99.2C264.6 94.5 265.2 89.8 264.6 85.1C263.6 76.9 259.2 68.5 250.8 65.9C243.3 63.6 236 67.6 232 74C227.2 81.7 228.1 90.1 228.7 98.6C228.9 101.1 230.2 109.9 225.7 110C222.3 110.1 222 103 221.7 100.8C220.7 90.7 222.6 80.5 222.1 70.3C221.7 63.2 220.6 54.7 215.4 49.4C209.3 43.2 199.8 44.3 194 50.2C187.7 56.6 188 65.8 188.4 74.1C188.9 85 189.3 95.8 189.7 106.7C190 117.6 190.3 128.4 190.3 139.3C190.3 144.6 190.3 149.9 190.2 155.1C190.2 158 190.9 162.7 188.3 164.7C186.1 166.4 181.5 166.7 179.1 165.1C177.3 163.9 176.4 161.6 175.7 159.6C173.6 153.6 173.5 146.9 173.5 140.6C173.4 120.3 174.1 100.1 173.7 79.8C173.5 68.9 173.1 57.9 172.6 47C172.3 39.5 171.9 31.2 167.2 24.9C162.4 18.4 153.9 16.8 146.8 20.8C138.9 25.3 136.5 34.2 135.4 42.5C132.6 63.6 135.2 84.8 134.8 106C134.7 111.1 134.5 116.3 133.9 121.3C133.5 125 132.9 129.9 130.3 132.8C125.6 137.9 124.7 125.4 124.6 122.9C124.4 111.9 124.5 101 124.3 90C124.1 80.3 124.7 70.2 123 60.6C121.9 54.1 118.8 47.1 112.4 44.4C105 41.3 97.5 45.5 93.7 52C89.3 59.7 89.2 69.3 88.4 77.9C87.8 84.4 87.2 98.5 79.8 101.6C72.4 104.6 64.8 90.7 61.8 85.9C56.9 77.9 52.8 69.4 49 60.9C40.1 40.3 31.3 17.4 16.5 0H0C15.6 14.2 25.7 36.3 33.4 54.4C40.7 71.4 47.8 89.2 59.7 103.6C64.9 109.9 72.6 115.4 81.3 113.7C89.5 112.1 94.4 104.8 97.1 97.4C100.3 88.4 100.3 78.7 101.4 69.3C101.7 66.8 104.9 49.9 109.6 57.3C113.6 63.6 112.1 74 112.3 81.1C112.6 92.4 112.7 103.7 112.8 115C112.8 122.6 112.2 130.9 115.8 138C119.1 144.4 126.3 148 133.3 145.3C140.2 142.7 143.9 134.9 145.2 128.1C147.1 118.1 147.1 107.6 147 97.4C146.8 86.8 146.2 76.2 146.2 65.6C146.2 56.1 145.4 44 149.6 35.3C150.9 32.6 154.3 29 157.3 31.6C159.6 33.6 160.1 37.8 160.4 40.6C161.6 50.9 161.4 61.6 161.7 71.9C162.3 93.3 162.1 114.7 161.7 136.1C161.5 147.8 161.1 163.3 169.6 172.5C174.6 177.9 182.5 179.1 189.5 177.3C197.4 175.2 201.5 169 202.2 161.2C203.1 150.7 202.5 139.9 202.3 129.4C202.2 118.9 201.9 108.3 201.5 97.8C201.1 87.4 200 76.9 200.3 66.5C200.4 63.7 201.2 57.2 205.2 57.1C208.3 57 209.1 62.1 209.6 64.3C211.5 73.8 209.7 83.7 209.6 93.3C209.5 101.6 209.9 112.4 216.6 118.3C223 123.9 231.2 122.1 236.8 116.5C243.8 109.5 240.2 97.9 240.2 89.2C240.2 84.4 244 72.3 250.2 79.4C255.9 85.9 251.9 97.1 253.9 104.9C256.3 114.2 263.7 116.9 272.5 117.4C283.4 118.1 294.4 118.3 305.3 118.4C322.4 118.6 339.6 118.2 356.7 118V106.2H356.6Z" fill="#3F55C9"/>
</g>
<defs>
<clipPath id="clip0">
<rect width="356.6" height="178" fill="white"/>
</clipPath>
</defs>
</svg>
