<svg width="14" height="14" viewBox="0 0 14 14" xmlns="http://www.w3.org/2000/svg">
<path d="M14 3.29988V0.548419C14 0.384641 13.9289 0.231782 13.803 0.128057C13.6772 0.0243311 13.5131 -0.0193429 13.3544 0.00795334L4.73779 1.58022C4.47518 1.62935 4.28917 1.85318 4.28917 2.11522V4.92127V9.15219C3.84056 8.82464 3.288 8.6281 2.69167 8.6281C1.20906 8.6281 0 9.8346 0 11.3141C0 12.7935 1.20906 14 2.69167 14C4.17428 14 5.38335 12.7935 5.38335 11.3141V5.37985L9.14185 4.66469L12.9004 3.94953V7.57993C12.4517 7.25237 11.8992 7.05584 11.3029 7.05584C9.82024 7.05584 8.61117 8.26233 8.61117 9.74179C8.61117 11.2212 9.82024 12.4277 11.3029 12.4277C12.7855 12.4277 13.9945 11.2212 13.9945 9.74179V3.29988C14 3.29988 14 3.29988 14 3.29988ZM2.69715 12.9082C1.81633 12.9082 1.09965 12.193 1.09965 11.3141C1.09965 10.4351 1.81633 9.71995 2.69715 9.71995C3.57796 9.71995 4.29465 10.4351 4.29465 11.3141C4.29465 12.193 3.57249 12.9082 2.69715 12.9082ZM5.38335 5.37985V2.56834L12.9004 1.19807V3.94953L9.14185 4.66469L5.38335 5.37985ZM11.3083 11.3359C10.4275 11.3359 9.71083 10.6207 9.71083 9.74179C9.71083 8.86285 10.4275 8.14769 11.3083 8.14769C12.1891 8.14769 12.9058 8.86285 12.9058 9.74179C12.9058 10.6207 12.1891 11.3359 11.3083 11.3359Z"/>
</svg>
