<svg width="12" height="15" viewBox="0 0 12 15" xmlns="http://www.w3.org/2000/svg">
<path d="M3.5327 5.47992H5.30784C5.62178 5.47992 5.87863 5.21758 5.87863 4.89694C5.87863 4.5763 5.62178 4.31396 5.30784 4.31396H3.5327C3.21877 4.31396 2.96191 4.5763 2.96191 4.89694C2.96191 5.21758 3.21306 5.47992 3.5327 5.47992Z"/>
<path d="M8.27592 7.2876H3.5327C3.21877 7.2876 2.96191 7.54994 2.96191 7.87058C2.96191 8.19121 3.21877 8.45355 3.5327 8.45355H8.27592C8.58985 8.45355 8.84671 8.19121 8.84671 7.87058C8.84671 7.54994 8.58985 7.2876 8.27592 7.2876Z"/>
<path d="M8.27592 10.2366H3.5327C3.21877 10.2366 2.96191 10.4989 2.96191 10.8196C2.96191 11.1402 3.21877 11.4025 3.5327 11.4025H8.27592C8.58985 11.4025 8.84671 11.1402 8.84671 10.8196C8.84671 10.4989 8.58985 10.2366 8.27592 10.2366Z"/>
<path d="M11.085 4.37816L8.11688 0.454722C7.89998 0.163234 7.56892 0 7.20933 0H0.987777C0.673845 0 0.416992 0.26234 0.416992 0.582977V14.417C0.416992 14.7377 0.673845 15 0.987777 15H10.7767C11.0907 15 11.3475 14.7377 11.3475 14.417V5.16518C11.3475 4.88535 11.2562 4.60552 11.085 4.37816ZM9.61233 4.34318H8.0598V2.2911L9.61233 4.34318ZM1.55856 13.834V1.16595H6.92394V4.92616C6.92394 5.24679 7.18079 5.50913 7.49472 5.50913H10.2059V13.834H1.55856Z"/>
</svg>
