<svg width="12" height="15" viewBox="0 0 12 15" xmlns="http://www.w3.org/2000/svg">
<path d="M5.62317 9.77651C7.18208 9.77651 8.45336 8.47807 8.45336 6.88586V2.89065C8.45336 1.29844 7.18208 0 5.62317 0C4.06426 0 2.79297 1.29844 2.79297 2.89065V6.88586C2.79297 8.47807 4.06426 9.77651 5.62317 9.77651ZM3.94346 2.89065C3.94346 1.94473 4.69703 1.17506 5.62317 1.17506C6.54931 1.17506 7.30288 1.94473 7.30288 2.89065V6.88586C7.30288 7.83179 6.54931 8.60145 5.62317 8.60145C4.69703 8.60145 3.94346 7.83179 3.94346 6.88586V2.89065Z"/>
<path d="M10.466 4.91821C10.1496 4.91821 9.89073 5.1826 9.89073 5.50574V6.88644C9.89073 9.28944 7.97517 11.2459 5.62242 11.2459C3.26967 11.2459 1.3541 9.28944 1.3541 6.88644V5.50574C1.3541 5.1826 1.09524 4.91821 0.778858 4.91821C0.462473 4.91821 0.203613 5.1826 0.203613 5.50574V6.88644C0.203613 9.74184 2.32627 12.092 5.04718 12.3916V14.4127C5.04718 14.7358 5.30604 15.0002 5.62242 15.0002C5.9388 15.0002 6.19766 14.7358 6.19766 14.4127V12.3916C8.91857 12.0978 11.0412 9.74184 11.0412 6.88644V5.50574C11.0412 5.1826 10.7824 4.91821 10.466 4.91821Z"/>
</svg>
