<svg width="15" height="15" viewBox="0 0 15 15" xmlns="http://www.w3.org/2000/svg">
<path d="M7.4926 11.1539C7.13206 11.1539 6.8361 10.8707 6.76614 10.4671C6.75 10.3767 6.75 10.2803 6.75 10.1779V10.1177C6.75 9.461 6.75 8.80434 6.75 8.14767V7.61149V7.491V6.70179C6.75 6.04513 6.75 5.38846 6.75 4.73179C6.75 4.38237 6.86839 4.13537 7.11054 3.97271C7.23431 3.88836 7.36883 3.84619 7.4926 3.84619C7.61099 3.84619 7.73475 3.88234 7.85852 3.96066C8.11144 4.11729 8.24058 4.35827 8.24597 4.67757C8.25135 6.54516 8.25135 8.41877 8.24597 10.3346C8.24597 10.7804 7.93386 11.1298 7.52489 11.1479C7.51951 11.1539 7.50336 11.1539 7.4926 11.1539Z"/>
<path d="M4.12282 8.07691C3.90136 8.07691 3.7015 7.97065 3.55025 7.78175C3.43682 7.63417 3.3774 7.46888 3.3774 7.28588C3.3774 6.27643 3.372 5.08399 3.3774 3.86793C3.3774 3.4429 3.7123 3.08871 4.11742 3.0769H4.13363C4.52254 3.0769 4.86285 3.42519 4.86825 3.83251C4.87905 4.23983 4.87365 4.65896 4.87365 5.06038C4.87365 5.23747 4.87365 5.41457 4.87365 5.59757V5.71563V6.09344C4.87365 6.48305 4.87365 6.87266 4.87365 7.25636C4.87365 7.61646 4.68459 7.90571 4.3929 8.02378C4.30108 8.0592 4.20925 8.07691 4.12282 8.07691Z"/>
<path d="M10.8677 11.9231C10.6885 11.9231 10.5201 11.8464 10.3626 11.6931C10.2105 11.5457 10.1291 11.3512 10.1291 11.1389C10.1236 9.95965 10.1236 8.7981 10.1291 7.6955C10.1291 7.33583 10.4169 6.98795 10.7482 6.93489C10.7862 6.92899 10.8297 6.9231 10.8677 6.9231C11.2153 6.9231 11.5031 7.14715 11.59 7.48324C11.6117 7.56578 11.6226 7.66602 11.6226 7.76626C11.628 8.17899 11.6226 8.59173 11.6226 8.99857V9.42899V9.93607C11.6226 10.3193 11.6226 10.6967 11.6226 11.0799C11.6226 11.4455 11.4705 11.699 11.1772 11.8405C11.0795 11.8995 10.9709 11.9231 10.8677 11.9231Z"/>
<path d="M7.49017 14.9999C7.474 14.9999 7.45782 14.9999 7.44164 14.9999C7.08031 14.9764 6.77831 14.6464 6.76213 14.2576C6.74596 13.8393 6.74596 13.427 6.76213 13.0322C6.77831 12.6493 7.09649 12.3253 7.47399 12.3076C7.48478 12.3076 7.49557 12.3076 7.50096 12.3076C7.85689 12.3076 8.18586 12.5963 8.229 12.9557C8.25057 13.1088 8.24518 13.2679 8.23978 13.4328C8.23978 13.5094 8.23439 13.586 8.23439 13.6626V13.7745H8.23978C8.23978 13.8099 8.23978 13.8452 8.24518 13.8865C8.25057 14.0455 8.25596 14.1987 8.23439 14.3401C8.19125 14.723 7.87307 14.9999 7.49017 14.9999Z"/>
<path d="M7.48153 2.69231C7.09751 2.6805 6.7838 2.35577 6.75676 1.95429C6.75135 1.81849 6.75135 1.67088 6.75135 1.53509C6.75135 1.47014 6.75135 1.4052 6.75135 1.34025V1.22217C6.75135 1.19855 6.75135 1.16903 6.75135 1.14541C6.75135 1.00962 6.74594 0.867915 6.75676 0.732119C6.7784 0.354251 7.08128 0.0236167 7.42744 0C7.44907 0 7.4653 0 7.48693 0C7.90881 0 8.19547 0.336538 8.23333 0.661269C8.24956 0.820682 8.24956 0.991903 8.24956 1.15722V1.17493C8.24956 1.24578 8.24956 1.31073 8.24956 1.38158C8.24956 1.59413 8.25497 1.81258 8.22792 2.02514C8.18466 2.39119 7.86013 2.69231 7.50316 2.69231C7.49775 2.69231 7.49234 2.69231 7.48153 2.69231Z"/>
<path d="M10.8812 5.76921C10.4646 5.76921 10.1345 5.40984 10.1291 4.95622C10.1236 4.62042 10.1236 4.26694 10.1291 3.87222C10.1345 3.43627 10.47 3.0769 10.8758 3.0769C11.2817 3.0769 11.6172 3.43038 11.6226 3.86044C11.628 3.99005 11.6226 4.11966 11.6226 4.24927C11.6226 4.30818 11.6226 4.37298 11.6226 4.43189V4.58507C11.6226 4.70878 11.6226 4.8325 11.6226 4.95622C11.6226 5.40984 11.2979 5.76921 10.8812 5.76921Z"/>
<path d="M0.750674 8.84611C0.346361 8.84611 0.0283019 8.52138 0.00673854 8.08448C0.00134771 7.95458 0.00134771 7.81879 0.00134771 7.68889C0.00134771 7.66528 0.00134771 7.64166 0.00134771 7.61804V7.49996C0.00134771 7.43501 0.00134771 7.37597 0.00134771 7.31103C0.00134771 7.18114 -0.00404313 7.04534 0.00673854 6.90954C0.0283019 6.47854 0.346361 6.15381 0.750674 6.15381C0.761456 6.15381 0.766846 6.15381 0.777628 6.15381C1.18194 6.16562 1.5 6.51987 1.5 6.95678C1.5 7.28741 1.5 7.64166 1.5 8.03134C1.5 8.47415 1.18194 8.8284 0.777628 8.84021C0.766846 8.84611 0.750674 8.84611 0.750674 8.84611Z"/>
<path d="M14.2507 8.84611C13.8464 8.84611 13.5283 8.52138 13.5067 8.08448C13.5013 7.95458 13.5013 7.81879 13.5013 7.68889C13.5013 7.66528 13.5013 7.64166 13.5013 7.61804V7.49996C13.5013 7.43501 13.5013 7.37597 13.5013 7.31103C13.5013 7.18114 13.496 7.04534 13.5067 6.90954C13.5283 6.47854 13.8464 6.15381 14.2507 6.15381C14.2615 6.15381 14.2668 6.15381 14.2776 6.15381C14.6819 6.16562 15 6.51987 15 6.95678C15 7.28741 15 7.64166 15 8.03134C15 8.47415 14.6819 8.8284 14.2776 8.84021C14.2668 8.84611 14.2507 8.84611 14.2507 8.84611Z"/>
<path d="M4.13648 11.923C3.71523 11.923 3.43981 11.5857 3.3912 11.2662C3.3804 11.1952 3.375 11.1301 3.375 11.0769C3.375 10.6863 3.375 10.3491 3.375 10.0295C3.375 9.59758 3.70443 9.23663 4.10407 9.23071H4.11487C4.53071 9.23071 4.85475 9.56207 4.87095 9.99994C4.87635 10.1301 4.87635 10.2662 4.87095 10.3964C4.87095 10.4201 4.87095 10.4437 4.87095 10.4615V10.5798C4.87095 10.639 4.87095 10.7041 4.87095 10.7633C4.87095 10.8934 4.87095 11.0295 4.87095 11.1597C4.85475 11.5443 4.56312 11.8875 4.21208 11.923C4.18508 11.923 4.15808 11.923 4.13648 11.923Z"/>
</svg>
