<svg width="14" height="14" viewBox="0 0 14 14" fill="none" xmlns="http://www.w3.org/2000/svg">
<g clip-path="url(#clip0)">
<path d="M7.00273 14C3.13784 14 0 10.8622 0 7.00273C0 3.1433 3.13784 0 7.00273 0C10.8676 0 14.0055 3.13784 14.0055 7.00273C14.0055 10.8676 10.8622 14 7.00273 14ZM7.00273 1.09332C3.74463 1.09332 1.09332 3.74463 1.09332 7.00273C1.09332 10.2608 3.74463 12.9121 7.00273 12.9121C10.2608 12.9121 12.9121 10.2608 12.9121 7.00273C12.9121 3.74463 10.2554 1.09332 7.00273 1.09332Z" fill="currentColor"/>
<path d="M5.1824 10.4959C5.08947 10.4959 4.99107 10.474 4.90907 10.4248C4.73961 10.3264 4.63574 10.146 4.63574 9.94924V4.05623C4.63574 3.85943 4.73961 3.67903 4.90907 3.58064C5.07854 3.48224 5.28627 3.48224 5.45573 3.58064L10.5616 6.52714C10.731 6.62554 10.8349 6.80594 10.8349 7.00274C10.8349 7.19953 10.731 7.37993 10.5616 7.47833L5.45573 10.4248C5.36827 10.4686 5.27534 10.4959 5.1824 10.4959ZM5.72907 5.00195V9.00352L9.1949 7.00274L5.72907 5.00195Z" fill="currentColor"/>
</g>
<defs>
<clipPath id="clip0">
<rect width="14" height="14" fill="white"/>
</clipPath>
</defs>
</svg>
