<svg width="14" height="14" viewBox="0 0 24 24" xmlns="http://www.w3.org/2000/svg">
<path d="M16.36 14C16.44 13.34 16.5 12.68 16.5 12C16.5 11.32 16.44 10.66 16.36 10H19.74C19.9 10.64 20 11.31 20 12C20 12.69 19.9 13.36 19.74 14H16.36ZM14.59 19.56C15.19 18.45 15.65 17.25 15.97 16H18.92C17.9512 17.6683 16.4141 18.932 14.59 19.56V19.56ZM14.34 14H9.66C9.56 13.34 9.5 12.68 9.5 12C9.5 11.32 9.56 10.65 9.66 10H14.34C14.43 10.65 14.5 11.32 14.5 12C14.5 12.68 14.43 13.34 14.34 14ZM12 19.96C11.17 18.76 10.5 17.43 10.09 16H13.91C13.5 17.43 12.83 18.76 12 19.96ZM8 8H5.08C6.03886 6.32721 7.5748 5.06149 9.4 4.44C8.8 5.55 8.35 6.75 8 8ZM5.08 16H8C8.35 17.25 8.8 18.45 9.4 19.56C7.57862 18.9317 6.04485 17.6677 5.08 16V16ZM4.26 14C4.1 13.36 4 12.69 4 12C4 11.31 4.1 10.64 4.26 10H7.64C7.56 10.66 7.5 11.32 7.5 12C7.5 12.68 7.56 13.34 7.64 14H4.26ZM12 4.03C12.83 5.23 13.5 6.57 13.91 8H10.09C10.5 6.57 11.17 5.23 12 4.03V4.03ZM18.92 8H15.97C15.657 6.76146 15.1936 5.5659 14.59 4.44C16.43 5.07 17.96 6.34 18.92 8ZM12 2C6.47 2 2 6.5 2 12C2 14.6522 3.05357 17.1957 4.92893 19.0711C5.85752 19.9997 6.95991 20.7362 8.17317 21.2388C9.38642 21.7413 10.6868 22 12 22C14.6522 22 17.1957 20.9464 19.0711 19.0711C20.9464 17.1957 22 14.6522 22 12C22 10.6868 21.7413 9.38642 21.2388 8.17317C20.7362 6.95991 19.9997 5.85752 19.0711 4.92893C18.1425 4.00035 17.0401 3.26375 15.8268 2.7612C14.6136 2.25866 13.3132 2 12 2V2Z"/>
</svg>
