<svg width="21" height="20" viewBox="0 0 21 20" xmlns="http://www.w3.org/2000/svg">
<path d="M8.35798 14.7407C8.08928 14.6962 7.79372 14.6428 7.51606 14.5894C4.10356 13.9482 2.563 10.0571 4.59617 7.24336C4.70365 7.10089 4.71261 6.87828 4.72157 6.68239C4.74844 6.05019 4.73948 5.41799 4.7753 4.79469C4.80217 4.30496 5.15149 4.1892 5.54559 4.34058C6.19047 4.58989 6.80848 4.90154 7.45336 5.15977C7.64145 5.2399 7.88328 5.29333 8.07137 5.24881C9.5761 4.91045 11.0629 4.91045 12.5676 5.2399C12.7826 5.28442 13.0603 5.21319 13.2752 5.12415C13.9022 4.87483 14.5023 4.57209 15.1293 4.33167C15.5054 4.1892 15.8368 4.28715 15.8637 4.76798C15.8995 5.40018 15.9085 6.03238 15.9354 6.65568C15.9443 6.83376 15.9174 7.05637 16.007 7.17212C16.8221 8.1783 16.9475 9.33585 16.8489 10.5557C16.6788 12.6393 15.5413 13.975 13.517 14.4914C13.105 14.5983 12.6841 14.6695 12.2183 14.7674C12.8274 15.4531 12.8543 16.2633 12.8543 17.0825C12.8543 17.8305 12.8453 18.5695 12.8543 19.3175C12.8632 19.923 13.1498 20.1189 13.741 19.9319C13.8932 19.8874 14.0365 19.825 14.1798 19.7716C18.5238 18.0086 21.1034 13.5565 20.5391 8.94407C19.8405 3.23645 14.2067 -0.912925 8.5013 0.173392C0.906018 1.61588 -2.49753 10.3687 2.15995 16.486C3.37806 18.0887 4.95444 19.2196 6.85326 19.9052C7.38171 20.0922 7.75789 19.9675 7.78476 19.5401C7.82955 18.9435 7.79372 18.3469 7.79372 17.7147C7.6325 17.7415 7.53397 17.7682 7.43545 17.7771C6.04716 17.9997 4.85592 17.5367 4.39017 16.5127C4.06773 15.8092 3.7005 15.1592 3.01084 14.7496C2.90336 14.6873 2.84066 14.5537 2.64362 14.3133C3.02875 14.3133 3.28849 14.2688 3.52137 14.3222C4.11251 14.4558 4.51557 14.8476 4.83801 15.3551C5.48289 16.3613 6.43229 16.6729 7.54293 16.2544C7.67728 16.201 7.81163 16.0586 7.88328 15.925C8.03555 15.5599 8.17885 15.1681 8.35798 14.7407Z"/>
</svg>
