<svg width="80" height="87" viewBox="0 0 80 87" fill="none" xmlns="http://www.w3.org/2000/svg">
<path d="M74.7729 86.309H38.0791C35.545 86.309 33.4717 84.2427 33.4717 81.7172V37.4244C33.4717 34.8988 35.545 32.8325 38.0791 32.8325H74.7729C77.307 32.8325 79.3803 34.8988 79.3803 37.4244V81.7172C79.3803 84.2427 77.307 86.309 74.7729 86.309Z" fill="#DB7B67"/>
<path d="M65.6146 77.1811H28.9209C26.3868 77.1811 24.3135 75.1148 24.3135 72.5893V28.2964C24.3135 25.7709 26.3868 23.7046 28.9209 23.7046H65.6146C68.1487 23.7046 70.2221 25.7709 70.2221 28.2964V72.5893C70.2221 75.1148 68.1487 77.1811 65.6146 77.1811Z" fill="#C9E9D9"/>
<path d="M56.3862 68.2279H35.1612C24.1187 68.2279 15.085 59.2249 15.085 48.2198V19.3433C15.085 16.8178 17.1583 14.7515 19.6924 14.7515H56.3862C58.9203 14.7515 60.9936 16.8178 60.9936 19.3433V63.6361C60.9936 66.1616 58.9203 68.2279 56.3862 68.2279Z" fill="#7DC8D4"/>
<path d="M35.4467 61.1234C31.8129 61.1234 28.686 59.8622 26.158 57.3704C23.6332 54.8847 22.3523 51.6857 22.3523 47.8592V21.9643H37.2988V15.0337H22.3523V0H14.9681V15.0337H0V21.9643H14.9681V47.8592C14.9681 53.7183 16.9954 58.6071 20.9915 62.3908C24.9601 66.15 29.8256 68.0541 35.4467 68.0541H37.4064V61.1234H35.4467Z" fill="#181A19"/>
</svg>
