<svg width="28" height="20" viewBox="0 0 28 20" fill="none" xmlns="http://www.w3.org/2000/svg">
<path d="M27.8967 2.32889C27.8878 0.773333 27.1009 0 25.5452 0C21.6915 0 17.8378 0 13.9752 0C10.0142 0 6.05323 0 2.10119 0C1.47531 0 0.956714 0.222222 0.527534 0.675556C0.0625888 1.16444 0 1.76889 0 2.4C0 7.52889 0 12.6489 0 17.7778C0 18.0622 0.035765 18.3644 0.125178 18.64C0.420239 19.5111 1.18025 20 2.19955 20C10.0231 20 17.8467 20 25.6703 20C25.715 20 25.7597 20 25.8044 20C26.8506 19.9733 27.6374 19.3511 27.8341 18.3733C27.8878 18.1244 27.8878 17.8578 27.8878 17.6C27.8878 14.2667 27.8878 10.9333 27.8878 7.6C27.8967 5.84 27.8967 4.08889 27.8967 2.32889ZM25.107 4.75556C24.5706 5.23556 24.0341 5.70667 23.4976 6.18667L21.8256 7.68C20.7437 8.64889 19.6618 9.60889 18.5799 10.5778C18.562 10.5956 18.5442 10.6133 18.5263 10.6311L18.5173 10.64L16.7648 12.2044L16.5771 12.0089L16.7559 12.2044C16.5413 12.3911 16.3267 12.5867 16.1032 12.7822C15.4505 13.3333 14.7084 13.6089 13.9662 13.6089C13.2331 13.6089 12.5088 13.3422 11.865 12.8089C11.6326 12.6133 11.418 12.4178 11.1855 12.2133C11.105 12.1422 11.0335 12.08 10.953 12.0089L9.00384 10.2756C8.7356 10.0356 8.46736 9.79556 8.19913 9.55556L6.8937 8.40889C5.50781 7.17333 4.13086 5.93778 2.74496 4.70222C2.20849 4.22222 2.1459 3.48444 2.6019 2.90667C2.80755 2.64889 3.11156 2.48 3.44238 2.44444C3.78215 2.40889 4.11298 2.50667 4.38121 2.72C4.84616 3.09333 5.28428 3.49333 5.7224 3.88444L5.74922 3.90222C5.86546 4.00889 5.9817 4.11556 6.09793 4.21333C7.23347 5.23556 8.37795 6.25778 9.52243 7.27111L9.54926 7.29778C10.8368 8.44445 12.1154 9.59111 13.4029 10.7378C13.8321 11.12 14.0556 11.1289 14.4848 10.7467C16.291 9.13778 18.0882 7.53778 19.8943 5.92889L21.8703 4.16C22.371 3.71556 22.8628 3.27111 23.3635 2.83556C23.7927 2.45333 24.2844 2.35556 24.7851 2.55111C25.259 2.72889 25.5452 3.12 25.5988 3.63556C25.6346 4.06222 25.4647 4.43556 25.107 4.75556Z" fill="#3F55C9"/>
</svg>
