<svg width="12" height="12" viewBox="0 0 12 12" fill="none" xmlns="http://www.w3.org/2000/svg">
<path d="M11.4952 1.91975L9.74575 0.170917C9.69167 0.116642 9.62739 0.0735995 9.55661 0.0442665C9.48583 0.0149334 9.40995 -0.000110512 9.33333 6.11143e-07H2.33333C2.25672 -0.000110512 2.18084 0.0149334 2.11006 0.0442665C2.03928 0.0735995 1.975 0.116642 1.92092 0.170917L0.171501 1.91975C0.116999 1.97381 0.0737744 2.03816 0.0443344 2.10905C0.0148944 2.17995 -0.000174614 2.25598 1.52649e-06 2.33275V9.91667C1.52649e-06 10.5601 0.523251 11.0833 1.16667 11.0833H10.5C11.1434 11.0833 11.6667 10.5601 11.6667 9.91667V2.33275C11.6668 2.25598 11.6518 2.17995 11.6223 2.10905C11.5929 2.03816 11.5497 1.97381 11.4952 1.91975V1.91975ZM2.57483 1.16667H9.09183L9.67458 1.74942H1.99208L2.57483 1.16667ZM1.16667 9.91667V2.91608H10.5L10.5012 9.91667H1.16667Z" fill="currentColor"/>
<path d="M7.58317 5.83268H4.08317V4.66602H2.9165V6.99935H8.74984V4.66602H7.58317V5.83268Z" fill="currentColor"/>
</svg>
