<svg width="15" height="15" viewBox="0 0 15 15" xmlns="http://www.w3.org/2000/svg">
<path d="M14.6885 0.134319C14.5567 0.0231624 14.3849 -0.0236403 14.2188 0.0114617L7.55141 1.28683L0.895497 0.0114617H0.88404C0.878312 0.0114617 0.872585 0.0114617 0.866857 0.0114617C0.855401 0.0114617 0.843945 0.00561138 0.832489 0.00561138C0.821033 0.00561138 0.809576 0.00561138 0.79812 0.00561138C0.792392 0.00561138 0.786665 0.00561138 0.775209 0.00561138C0.775209 0.00561138 0.775209 0.00561138 0.769481 0.00561138C0.758025 0.00561138 0.74657 0.00561138 0.735114 0.00561138C0.729386 0.00561138 0.717929 0.00561138 0.712201 0.00561138C0.700745 0.00561138 0.689289 0.0114617 0.683561 0.0114617C0.672105 0.0114617 0.666377 0.0114617 0.654921 0.017312C0.649193 0.017312 0.643465 0.0231624 0.632009 0.0231624C0.620553 0.0290127 0.609097 0.0290127 0.597641 0.034863C0.591913 0.034863 0.591914 0.034863 0.586186 0.0407133C0.569002 0.0465637 0.557546 0.052414 0.54609 0.0582643C0.511722 0.0758153 0.483081 0.0933663 0.454441 0.110917L0.448715 0.116768C0.437259 0.128468 0.425803 0.134319 0.414347 0.146019C0.408619 0.15187 0.40289 0.15772 0.397162 0.16357C0.391434 0.169421 0.379978 0.175271 0.37425 0.186972C0.368522 0.192822 0.357066 0.204522 0.351338 0.216223C0.34561 0.222073 0.34561 0.227924 0.339882 0.227924C0.334154 0.239624 0.322698 0.251325 0.31697 0.263026C0.311242 0.268876 0.311243 0.268876 0.305515 0.274726C0.299787 0.286427 0.294058 0.298128 0.28833 0.303978C0.282602 0.309828 0.282603 0.315679 0.276875 0.321529C0.271147 0.327379 0.271147 0.33908 0.265419 0.350781C0.259691 0.356631 0.25969 0.368332 0.253962 0.374182C0.248234 0.380032 0.248235 0.391733 0.248235 0.397583C0.242507 0.409284 0.242507 0.420985 0.236779 0.432685C0.236779 0.438536 0.23105 0.444386 0.23105 0.450236C0.225322 0.461937 0.225324 0.473638 0.219596 0.485338C0.219596 0.485338 0.219596 0.485338 0.219596 0.491188C0.219596 0.497039 0.219596 0.502889 0.219596 0.51459C0.219596 0.52629 0.213867 0.537991 0.213867 0.549692C0.213867 0.561392 0.213867 0.573093 0.213867 0.584794C0.213867 0.590644 0.213867 0.596494 0.213867 0.602345V0.608195V13.1162C0.213867 13.397 0.408618 13.6369 0.683561 13.6895L7.45404 14.9883C7.48841 14.9941 7.52277 15 7.55714 15C7.59151 15 7.62588 14.9941 7.66025 14.9883L14.4307 13.6895C14.6999 13.6369 14.9004 13.397 14.9004 13.1162V0.596494C14.8947 0.409284 14.8202 0.245475 14.6885 0.134319ZM1.35374 1.28683L6.97862 2.36914V13.6954L1.35374 12.6189V1.28683ZM13.7491 12.6189L8.12421 13.7012V2.36914L13.7491 1.28683V12.6189Z"/>
<path d="M2.54201 4.66297L5.58357 5.24801C5.61794 5.25386 5.65804 5.25971 5.6924 5.25971C5.96162 5.25971 6.20219 5.06665 6.25375 4.78583C6.31103 4.46991 6.11055 4.15985 5.79551 4.10134L2.75395 3.51631C2.44464 3.45781 2.14105 3.66257 2.08377 3.98434C2.02649 4.3061 2.2327 4.60447 2.54201 4.66297Z"/>
<path d="M5.8001 6.90921L2.75854 6.32417C2.44923 6.26567 2.14565 6.47043 2.08837 6.7922C2.03109 7.11397 2.23157 7.41819 2.5466 7.47669L5.58816 8.06172C5.62253 8.06758 5.66263 8.07343 5.69699 8.07343C5.96621 8.07343 6.20678 7.88036 6.25834 7.59955C6.31562 7.27193 6.10941 6.96771 5.8001 6.90921Z"/>
<path d="M5.8001 9.71169L2.75854 9.12666C2.44923 9.06816 2.14565 9.27292 2.08837 9.59469C2.03109 9.91061 2.23157 10.2207 2.5466 10.2792L5.58816 10.8642C5.62253 10.8701 5.66263 10.8759 5.69699 10.8759C5.96621 10.8759 6.20678 10.6828 6.25834 10.402C6.31562 10.0803 6.10941 9.7702 5.8001 9.71169Z"/>
<path d="M9.42002 5.25901C9.45439 5.25901 9.48876 5.25316 9.52885 5.24731L12.5704 4.66228C12.8797 4.60377 13.0859 4.2937 13.0286 3.97779C12.9714 3.66187 12.6678 3.45126 12.3585 3.50976L9.31692 4.09479C9.0076 4.1533 8.8014 4.46336 8.85868 4.77928C8.91023 5.06595 9.1508 5.25901 9.42002 5.25901Z"/>
<path d="M9.42002 8.0676C9.45439 8.0676 9.48876 8.06175 9.52885 8.0559L12.5704 7.47087C12.8797 7.41236 13.0859 7.1023 13.0286 6.78638C12.9714 6.47046 12.6678 6.25985 12.3585 6.31835L9.31692 6.90339C9.0076 6.96189 8.8014 7.27196 8.85868 7.58787C8.91023 7.86869 9.1508 8.0676 9.42002 8.0676Z"/>
<path d="M12.3585 9.12584L9.31692 9.71088C9.0076 9.76938 8.8014 10.0794 8.85868 10.3954C8.91023 10.6762 9.1508 10.8692 9.42002 10.8692C9.45439 10.8692 9.48876 10.8634 9.52885 10.8575L12.5704 10.2725C12.8797 10.214 13.0859 9.90394 13.0286 9.58802C12.9656 9.2721 12.6678 9.06149 12.3585 9.12584Z"/>
</svg>
