<svg width="21" height="20" viewBox="0 0 21 20" xmlns="http://www.w3.org/2000/svg">
<path d="M10.6497 5.92143C8.43279 5.89488 6.53641 7.70933 6.5008 9.89553C6.45629 12.2056 8.27254 14.0732 10.5873 14.1086C12.822 14.144 14.7184 12.2942 14.7362 10.0726C14.7451 7.78899 12.9378 5.94798 10.6497 5.92143Z"/>
<path d="M20.7638 5.15128C20.746 4.8415 20.7015 4.53171 20.6748 4.21308C20.4878 2.08884 19.188 0.584166 17.0868 0.221275C16.0006 0.035404 14.8788 0 13.7659 0C10.8012 0.008851 7.83643 0.026553 4.87168 0.123914C3.55401 0.168169 2.40551 0.743484 1.59533 1.84986C0.883077 2.81462 0.669402 3.9387 0.660498 5.08933C0.624886 8.39075 0.624886 11.6922 0.660498 14.9847C0.669402 16.0911 0.883075 17.1886 1.55971 18.1269C2.54796 19.4988 3.99917 19.9767 5.58393 19.9856C9.21641 20.0121 12.8489 20.0121 16.4814 19.8971C18.8585 19.8262 20.5056 18.1357 20.6659 15.7548C20.7905 13.843 20.7994 11.9223 20.8617 10.0105C20.8617 8.3996 20.8706 6.78872 20.7638 5.15128ZM10.5875 16.2858C7.01735 16.277 4.29299 13.4889 4.3108 9.87772C4.3286 6.47893 7.15979 3.73512 10.6409 3.74397C14.1755 3.75282 16.9354 6.54089 16.9176 10.099C16.9176 13.5332 14.0864 16.2947 10.5875 16.2858ZM17.1758 4.93001C16.3478 4.91231 15.7068 4.24848 15.7335 3.43419C15.7602 2.64645 16.4191 2.00918 17.2025 2.00918C17.9949 2.00918 18.6894 2.69956 18.6894 3.48729C18.6805 4.28389 17.986 4.93886 17.1758 4.93001Z"/>
</svg>
