<svg width="23" height="20" viewBox="0 0 23 20" xmlns="http://www.w3.org/2000/svg">
<path d="M12.7972 19.9888C11.266 19.9888 9.77879 19.9888 8.25639 19.9888C8.23879 18.8603 8.27399 17.7405 8.27399 16.6207C8.27399 15.5009 8.27399 14.3723 8.28279 13.2525C8.28279 12.1327 8.28279 11.0042 8.28279 9.88438C8.28279 8.76458 8.28279 7.64478 8.28279 6.51623C9.77878 6.51623 11.266 6.51623 12.7796 6.51623C12.7884 6.59497 12.7972 6.6737 12.7972 6.74369C12.7972 7.19861 12.7972 7.64478 12.7972 8.0997C12.7972 8.16094 12.806 8.21343 12.806 8.31841C12.8676 8.23093 12.9116 8.17844 12.9468 8.13469C13.3252 7.60979 13.774 7.15487 14.3284 6.81368C14.918 6.45499 15.5692 6.27127 16.2556 6.21004C17.0652 6.14005 17.8572 6.20129 18.6316 6.45499C19.9692 6.89241 20.8844 7.78476 21.4476 9.06203C21.7204 9.69192 21.8788 10.3568 21.9668 11.0304C22.0284 11.5028 22.0372 11.984 22.0372 12.4564C22.0372 14.8797 22.0372 17.2943 22.0372 19.7176C22.0372 19.7964 22.0372 19.8839 22.0372 19.9626C21.8788 20.0063 17.734 20.0151 17.5052 19.9713C17.5052 19.8926 17.4964 19.8139 17.4964 19.7351C17.4964 17.3905 17.4964 15.0547 17.4964 12.7101C17.4964 12.229 17.4436 11.7478 17.294 11.2841C17.2764 11.2316 17.2588 11.1792 17.2412 11.1267C16.9068 10.2343 16.238 9.77065 15.2876 9.75315C14.1436 9.73566 13.1316 10.5143 12.8852 11.6166C12.8236 11.9053 12.806 12.2027 12.806 12.5002C12.7972 14.8972 12.806 17.2943 12.806 19.6914C12.7972 19.7789 12.7972 19.8751 12.7972 19.9888Z"/>
<path d="M5.77514 19.9887C4.27914 19.9887 2.78314 19.9887 1.27834 19.9887C1.26954 19.9187 1.26074 19.8662 1.26074 19.805C1.21674 17.7666 1.24314 6.68233 1.29594 6.51611C2.79195 6.51611 4.28795 6.51611 5.78395 6.51611C5.81915 6.67359 5.81914 19.805 5.77514 19.9887Z"/>
<path d="M3.65396 4.69639C2.90596 4.69639 2.32517 4.55642 1.84117 4.15399C1.18116 3.62033 0.925965 2.91171 1.00516 2.08061C1.11956 0.934562 1.98196 0.217189 2.99396 0.050969C3.45156 -0.027767 3.91796 -0.0190185 4.36676 0.10346C5.43156 0.392158 5.98597 1.24076 6.07397 2.1331C6.17077 3.11292 5.65157 4.04901 4.73637 4.45144C4.35797 4.62641 3.95316 4.69639 3.65396 4.69639Z"/>
</svg>
