<svg width="13" height="13" viewBox="0 0 13 13" fill="none" xmlns="http://www.w3.org/2000/svg">
<path d="M7.82549 9.2541C7.802 9.23084 7.77027 9.21779 7.73721 9.21779C7.70414 9.21779 7.67242 9.23084 7.64893 9.2541L5.8333 11.0697C4.99268 11.9104 3.57393 11.9994 2.6458 11.0697C1.71611 10.14 1.80518 8.72285 2.6458 7.88223L4.46143 6.0666C4.50986 6.01816 4.50986 5.93848 4.46143 5.89004L3.83955 5.26816C3.81606 5.2449 3.78433 5.23185 3.75127 5.23185C3.71821 5.23185 3.68648 5.2449 3.66299 5.26816L1.84736 7.08379C0.525488 8.40566 0.525488 10.5447 1.84736 11.865C3.16924 13.1854 5.3083 13.1869 6.62861 11.865L8.44424 10.0494C8.49268 10.001 8.49268 9.92129 8.44424 9.87285L7.82549 9.2541ZM11.8661 1.84785C10.5442 0.525977 8.40518 0.525977 7.08486 1.84785L5.26768 3.66348C5.24441 3.68697 5.23136 3.7187 5.23136 3.75176C5.23136 3.78482 5.24441 3.81655 5.26768 3.84004L5.88799 4.46035C5.93643 4.50879 6.01611 4.50879 6.06455 4.46035L7.88018 2.64473C8.7208 1.8041 10.1396 1.71504 11.0677 2.64473C11.9974 3.57441 11.9083 4.9916 11.0677 5.83223L9.25205 7.64785C9.22879 7.67134 9.21574 7.70307 9.21574 7.73613C9.21574 7.7692 9.22879 7.80092 9.25205 7.82441L9.87393 8.44629C9.92236 8.49473 10.0021 8.49473 10.0505 8.44629L11.8661 6.63066C13.1864 5.30879 13.1864 3.16973 11.8661 1.84785ZM8.38955 4.67441C8.36606 4.65115 8.33433 4.6381 8.30127 4.6381C8.26821 4.6381 8.23648 4.65115 8.21299 4.67441L4.67393 8.21191C4.65066 8.23541 4.63761 8.26713 4.63761 8.3002C4.63761 8.33326 4.65066 8.36498 4.67393 8.38848L5.29268 9.00723C5.34111 9.05566 5.4208 9.05566 5.46924 9.00723L9.00674 5.46973C9.05517 5.42129 9.05517 5.3416 9.00674 5.29316L8.38955 4.67441Z" fill="white"/>
</svg>
