<svg width="26" height="18" viewBox="0 0 26 18" xmlns="http://www.w3.org/2000/svg">
<path d="M25.107 2.096C25.099 0.696 24.3908 0 22.9906 0C19.5223 0 16.054 0 12.5777 0C9.01278 0 5.4479 0 1.89107 0C1.32778 0 0.861042 0.2 0.47478 0.608C0.0563299 1.048 0 1.592 0 2.16C0 6.776 0 11.384 0 16C0 16.256 0.0321885 16.528 0.11266 16.776C0.378215 17.56 1.06222 18 1.97959 18C9.02083 18 16.0621 18 23.1033 18C23.1435 18 23.1838 18 23.224 18C24.1655 17.976 24.8737 17.416 25.0507 16.536C25.099 16.312 25.099 16.072 25.099 15.84C25.099 12.84 25.099 9.84 25.099 6.84C25.107 5.256 25.107 3.68 25.107 2.096ZM22.5963 4.28C22.1135 4.712 21.6307 5.136 21.1478 5.568L19.643 6.912C18.6693 7.784 17.6956 8.648 16.7219 9.52C16.7058 9.536 16.6897 9.552 16.6736 9.568L16.6656 9.576L15.0884 10.984L14.9194 10.808L15.0803 10.984C14.8872 11.152 14.6941 11.328 14.4929 11.504C13.9054 12 13.2375 12.248 12.5696 12.248C11.9097 12.248 11.2579 12.008 10.6785 11.528C10.4693 11.352 10.2762 11.176 10.067 10.992C9.99453 10.928 9.93015 10.872 9.85773 10.808L8.10345 9.248C7.86204 9.032 7.62063 8.816 7.37921 8.6L6.20433 7.568C4.95703 6.456 3.71777 5.344 2.47047 4.232C1.98764 3.8 1.93131 3.136 2.34171 2.616C2.5268 2.384 2.8004 2.232 3.09814 2.2C3.40393 2.168 3.70168 2.256 3.94309 2.448C4.36154 2.784 4.75585 3.144 5.15016 3.496L5.1743 3.512C5.27891 3.608 5.38353 3.704 5.48814 3.792C6.51012 4.712 7.54016 5.632 8.57019 6.544L8.59433 6.568C9.75312 7.6 10.9039 8.632 12.0626 9.664C12.4489 10.008 12.6501 10.016 13.0363 9.672C14.6619 8.224 16.2793 6.784 17.9049 5.336L19.6833 3.744C20.1339 3.344 20.5765 2.944 21.0271 2.552C21.4134 2.208 21.856 2.12 22.3066 2.296C22.7331 2.456 22.9906 2.808 23.0389 3.272C23.0711 3.656 22.9182 3.992 22.5963 4.28Z"/>
</svg>
