<svg width="12" height="14" viewBox="0 0 12 14" fill="none" xmlns="http://www.w3.org/2000/svg">
<path d="M6.31579 0H1.26316C0.568421 0 0 0.580263 0 1.28947V11.6053C0 11.8696 0.0757896 12.1211 0.214737 12.3274C0.258947 12.3983 0.31579 12.4628 0.372632 12.5143C0.6 12.7529 0.915789 12.8947 1.26316 12.8947H6.01895C5.68421 12.5208 5.43789 12.0888 5.27368 11.6053H1.26316V1.28947H5.68421V4.51316H8.8421V6.44737C9.28421 6.44737 9.70737 6.52474 10.1053 6.66658V3.86842L6.31579 0ZM8.8421 13.5395L12 10.6382L10.1053 8.89737L8.8421 7.73684V9.67105H6.31579V11.6053H8.8421V13.5395Z" fill="currentColor"/>
</svg>
