<svg width="15" height="15" viewBox="0 0 15 15" xmlns="http://www.w3.org/2000/svg">
<path d="M15 7.53789C15 7.5204 15 7.50291 15 7.49126V4.17412C15 4.15663 15 4.13914 15 4.12748C15 4.11582 15 4.0925 15 4.08084V0.582977C15 0.26234 14.7378 0 14.4172 0H0.58275C0.262238 0 0 0.26234 0 0.582977V14.417C0 14.7377 0.262238 15 0.58275 15H14.4114C14.7319 15 14.9942 14.7377 14.9942 14.417V10.9949C14.9942 10.9775 14.9942 10.96 14.9942 10.9483C14.9942 10.9367 14.9942 10.9133 14.9942 10.9017V7.58453C15 7.57287 15 7.55538 15 7.53789ZM2.95455 6.95492H1.1655V4.71045H2.95455V6.95492ZM1.1655 8.12087H2.95455V10.3653H1.1655V8.12087ZM4.12005 1.16595H10.88V13.834H4.12005V1.16595ZM12.0455 4.71045H13.8345V6.95492H12.0455V4.71045ZM12.0455 8.12087H13.8345V10.3653H12.0455V8.12087ZM13.8287 3.5445H12.0396V1.16595H13.8287V3.5445ZM2.95455 1.16595V3.5445H1.1655V1.16595H2.95455ZM1.1655 11.5313H2.95455V13.834H1.1655V11.5313ZM12.0455 13.834V11.5313H13.8345V13.834H12.0455Z"/>
</svg>
