<svg width="16" height="20" viewBox="0 0 16 20" xmlns="http://www.w3.org/2000/svg">
<path d="M6.79439 13.27C6.56491 14.2176 6.3619 15.1477 6.10594 16.0603C5.76172 17.2624 5.30276 18.4031 4.4378 19.3419C4.22598 19.5788 3.97884 19.7806 3.74054 20C3.70523 19.9912 3.66993 19.9825 3.63463 19.9649C3.60815 19.2103 3.55519 18.4557 3.56401 17.7011C3.57284 15.9462 3.9965 14.2527 4.4378 12.5593C4.68493 11.5941 4.93207 10.6377 5.16155 9.67249C5.19686 9.52333 5.1792 9.32152 5.11742 9.18112C4.52607 7.91761 4.82616 5.99601 5.78821 4.98695C6.39721 4.34641 7.3416 4.22357 8.09182 4.70616C8.47135 4.95185 8.66553 5.30282 8.70083 5.75032C8.75379 6.35576 8.62139 6.9261 8.45369 7.50521C8.23304 8.26858 7.97708 9.01441 7.79173 9.78656C7.68582 10.2341 7.62404 10.7167 7.65052 11.1817C7.68582 11.8573 8.07418 12.2522 8.73614 12.4364C9.98945 12.7699 10.978 12.3487 11.7723 11.3835C12.5843 10.392 12.955 9.21622 13.1315 7.97903C13.2816 6.95242 13.2551 5.92581 12.9727 4.91675C12.5049 3.26716 11.331 2.33707 9.71584 1.96854C6.82086 1.31046 3.74054 3.10044 2.83145 5.89949C2.54901 6.77693 2.48723 7.6807 2.75201 8.57569C2.8138 8.78627 2.93736 8.98809 3.03445 9.1899C3.11388 9.34784 3.21097 9.497 3.29041 9.64617C3.65228 10.2604 3.56402 10.8658 3.2198 11.4537C3.1845 11.5151 3.02562 11.5414 2.94618 11.5151C1.63992 11.1641 0.810268 10.3218 0.527832 9.01441C-0.0723452 6.18027 0.766136 3.55671 3.1845 1.68776C4.3672 0.775217 5.70877 0.213653 7.20039 0.064488C9.36279 -0.154873 11.4193 0.161007 13.2639 1.38943C14.7026 2.34584 15.594 3.67078 15.8588 5.37302C16.2119 7.63682 15.8765 9.79533 14.6496 11.7608C13.7759 13.1559 12.5667 14.1387 10.8897 14.437C9.75113 14.6388 8.64787 14.5511 7.677 13.8316C7.39456 13.6473 7.09448 13.4718 6.79439 13.27Z"/>
</svg>
