<svg width="13" height="13" viewBox="0 0 13 13" fill="none" xmlns="http://www.w3.org/2000/svg">
<path d="M12.1772 3.20282L6.53849 0.0778158C6.44583 0.0267696 6.34177 0 6.23599 0C6.1302 0 6.02614 0.0267696 5.93349 0.0778158L0.322236 3.17782C0.224757 3.23179 0.143481 3.31085 0.0868245 3.40679C0.0301682 3.50274 0.000192154 3.61209 9.20749e-07 3.72351C-0.000190313 3.83494 0.0294101 3.94439 0.0857367 4.04053C0.142063 4.13667 0.223068 4.216 0.320361 4.27032L5.95911 7.42032C6.05194 7.47247 6.15661 7.49992 6.26309 7.50003C6.36957 7.50014 6.4743 7.47291 6.56724 7.42094L12.1785 4.29594C12.276 4.24173 12.3572 4.16243 12.4136 4.06625C12.4701 3.97008 12.4998 3.86054 12.4997 3.74901C12.4996 3.63748 12.4696 3.52801 12.4129 3.43196C12.3562 3.33592 12.2748 3.2568 12.1772 3.20282V3.20282Z" fill="currentColor"/>
<path d="M6.24955 8.66035L0.927676 5.7041L0.320801 6.7966L5.9458 9.9216C6.03863 9.97315 6.14306 10.0002 6.24924 10.0002C6.35542 10.0002 6.45985 9.97315 6.55268 9.9216L12.1777 6.7966L11.5708 5.7041L6.24955 8.66035Z" fill="currentColor"/>
<path d="M6.24955 11.1604L0.927676 8.2041L0.320801 9.2966L5.9458 12.4216C6.03863 12.4732 6.14306 12.5002 6.24924 12.5002C6.35542 12.5002 6.45985 12.4732 6.55268 12.4216L12.1777 9.2966L11.5708 8.2041L6.24955 11.1604Z" fill="currentColor"/>
</svg>
