<svg width="27" height="20" viewBox="0 0 27 20" xmlns="http://www.w3.org/2000/svg">
<path d="M2.80252 0.946457C5.56057 4.15562 9.02808 5.9189 13.276 6.21865C13.2494 5.92771 13.2228 5.67204 13.1962 5.40755C12.9834 2.81553 14.8102 0.611435 17.1426 0.126534C18.863 -0.234938 20.3884 0.179432 21.692 1.35201C21.8871 1.52834 22.0645 1.59887 22.304 1.51071C23.244 1.17568 24.184 0.849477 25.1063 0.523271C24.7516 1.57242 24.0333 2.42761 23.0578 3.10647C24.0067 3.03594 24.8935 2.76263 25.8158 2.38353C25.1596 3.35333 24.4058 4.12036 23.5367 4.79922C23.4302 4.88738 23.3238 5.06371 23.3238 5.19595C23.3682 8.48446 22.4281 11.4732 20.5126 14.1446C18.3576 17.151 15.4487 19.02 11.795 19.7165C9.1079 20.2279 6.46514 20.0604 3.89333 19.1082C2.97989 18.7732 2.11966 18.3147 1.2417 17.8386C3.94654 17.9797 6.36759 17.3185 8.6024 15.6346C7.45839 15.5817 6.48287 15.2643 5.64038 14.6295C4.80676 14.0035 4.19485 13.2012 3.85785 12.1433C4.59392 12.1433 5.29452 12.1433 6.00399 12.1433C6.01286 12.0992 6.01286 12.0639 6.02173 12.0198C4.87771 11.7377 3.91993 11.1646 3.17499 10.2477C2.43005 9.32202 2.06645 8.27287 2.04871 7.12674C2.78478 7.32952 3.50312 7.5323 4.22145 7.72626C4.23919 7.69099 4.2658 7.64691 4.28353 7.61164C3.23707 6.8358 2.51874 5.84837 2.22608 4.56999C1.97777 3.32688 2.15513 2.13667 2.80252 0.946457Z"/>
</svg>
