<svg viewBox="0 0 534 216" fill="none" xmlns="http://www.w3.org/2000/svg">
<path opacity="0.3" d="M504.12 49.3525L490.71 64.1908L487 60.8383L500.41 46L504.12 49.3525Z" fill="#FFCF59"/>
<path opacity="0.2" d="M145.5 138.625L141.125 128L130.5 132.375L134.875 143L145.5 138.625Z" stroke="#71D1DC" stroke-width="4"/>
<path opacity="0.8" d="M527.748 132.189L530.336 135.239L518.135 145.59L515.547 142.539L527.748 132.189Z" fill="#7689F4"/>
<path d="M199.034 81.0234C192.028 80.5994 185.419 85.9984 185 93.0134L198.008 94.0474L199.034 81.0234Z" fill="#7689F4"/>
<path opacity="0.4" d="M349.196 53C345.422 58.2428 346.651 65.1995 351.819 68.6899L355.175 64.1639C352.591 62.4187 351.977 58.9404 354.006 56.2816L349.196 53Z" fill="#71D1DC"/>
<path opacity="0.4" d="M211.156 22.9831C207.028 18.0141 199.986 17.4579 195.31 21.5845L198.849 25.969C201.187 23.9057 204.708 24.1843 206.772 26.8156L211.156 22.9831Z" fill="#D9937E"/>
<path d="M312.176 138.231C311.766 130.134 305.094 124.214 297.274 124.767L297.53 131.833C301.44 131.557 304.776 134.517 304.87 138.712L312.176 138.231Z" fill="#FFCF59"/>
<path opacity="0.8" d="M241.993 176L243.156 195.047L239.164 195.291L238 176.244L241.993 176Z" fill="#71D1DC"/>
<path opacity="0.8" d="M37.2356 80.031L54.8372 87.4015L53.2926 91.0906L35.6906 83.7211L37.2356 80.031Z" fill="#F0D4CB"/>
<path opacity="0.7" d="M405 163C401.41 163 398.5 165.91 398.5 169.5C398.5 173.09 401.41 176 405 176C408.59 176 411.5 173.09 411.5 169.5C411.5 165.91 408.59 163 405 163Z" stroke="#71D1DC" stroke-width="5"/>
<path opacity="0.7" d="M253 81C252.172 81 251.5 81.6716 251.5 82.5C251.5 83.3284 252.172 84 253 84C253.828 84 254.5 83.3284 254.5 82.5C254.5 81.6716 253.828 81 253 81Z" stroke="#7689F4" stroke-width="3"/>
<path opacity="0.7" d="M138.568 201.093C137.74 201.093 137.068 201.765 137.068 202.593C137.068 203.422 137.74 204.093 138.568 204.093C139.397 204.093 140.068 203.422 140.068 202.593C140.068 201.765 139.397 201.093 138.568 201.093Z" stroke="#FFCF59" stroke-width="3"/>
<path d="M54.5 134C53.672 134 53 134.672 53 135.5C53 136.328 53.672 137 54.5 137C55.328 137 56 136.328 56 135.5C56 134.672 55.328 134 54.5 134Z" stroke="#7689F4" stroke-width="3"/>
<path d="M109 53C108.448 53 108 53.4477 108 54C108 54.5523 108.448 55 109 55C109.552 55 110 54.5523 110 54C110 53.4477 109.552 53 109 53Z" stroke="#FFCF59" stroke-width="2"/>
<path opacity="0.8" d="M377.122 114.479L387.451 108C389.961 113.574 388.279 120.585 383.564 124.749L377.122 114.479Z" stroke="#3E57E5" stroke-width="4"/>
<path opacity="0.7" d="M346 204C345.448 204 345 204.448 345 205C345 205.553 345.448 206 346 206C346.552 206 347 205.553 347 205C347 204.448 346.552 204 346 204Z" stroke="#7689F4" stroke-width="2"/>
</svg>
