<svg width="28" height="20" viewBox="0 0 28 20" xmlns="http://www.w3.org/2000/svg">
<path d="M27.4156 3.06563C27.2562 2.47199 26.9437 1.93064 26.5094 1.49574C26.075 1.06084 25.5341 0.747641 24.9406 0.5875C22.7562 1.19209e-07 14 0 14 0C14 0 5.24375 -1.19209e-07 3.05937 0.584375C2.46569 0.743997 1.92445 1.05702 1.49002 1.492C1.05558 1.92698 0.743248 2.46861 0.584375 3.0625C-1.19209e-07 5.25 0 9.8125 0 9.8125C0 9.8125 -1.19209e-07 14.375 0.584375 16.5594C0.90625 17.7656 1.85625 18.7156 3.05937 19.0375C5.24375 19.625 14 19.625 14 19.625C14 19.625 22.7562 19.625 24.9406 19.0375C26.1469 18.7156 27.0937 17.7656 27.4156 16.5594C28 14.375 28 9.8125 28 9.8125C28 9.8125 28 5.25 27.4156 3.06563ZM11.2188 14V5.625L18.4688 9.78125L11.2188 14Z"/>
</svg>
